<mxfile host="app.diagrams.net" modified="2023-08-20T17:35:16.260Z" agent="Mozilla/5.0 (Windows NT 10.0; Win64; x64) AppleWebKit/537.36 (KHTML, like Gecko) Chrome/115.0.0.0 Safari/537.36 Edg/115.0.1901.203" etag="7jckvjMRPsmj5Ht7_XTk" version="21.6.8" type="device">
  <diagram name="Страница — 1" id="as3L06JWmnot2dild0Tz">
    <mxGraphModel dx="1046" dy="889" grid="1" gridSize="10" guides="1" tooltips="1" connect="1" arrows="1" fold="1" page="1" pageScale="1" pageWidth="827" pageHeight="1169" math="0" shadow="0">
      <root>
        <mxCell id="0" />
        <mxCell id="1" parent="0" />
        <mxCell id="B4tNh-O1DBcCCkFyCfUT-9" style="edgeStyle=orthogonalEdgeStyle;rounded=0;orthogonalLoop=1;jettySize=auto;html=1;exitX=0.5;exitY=1;exitDx=0;exitDy=0;entryX=0.5;entryY=0;entryDx=0;entryDy=0;" edge="1" parent="1" source="B4tNh-O1DBcCCkFyCfUT-2" target="B4tNh-O1DBcCCkFyCfUT-5">
          <mxGeometry relative="1" as="geometry" />
        </mxCell>
        <mxCell id="B4tNh-O1DBcCCkFyCfUT-2" value="start" style="rounded=1;whiteSpace=wrap;html=1;fillColor=#dae8fc;strokeColor=#6c8ebf;" vertex="1" parent="1">
          <mxGeometry x="300" y="40" width="120" height="40" as="geometry" />
        </mxCell>
        <mxCell id="B4tNh-O1DBcCCkFyCfUT-13" style="edgeStyle=orthogonalEdgeStyle;rounded=0;orthogonalLoop=1;jettySize=auto;html=1;exitX=0.5;exitY=1;exitDx=0;exitDy=0;" edge="1" parent="1" source="B4tNh-O1DBcCCkFyCfUT-4" target="B4tNh-O1DBcCCkFyCfUT-12">
          <mxGeometry relative="1" as="geometry" />
        </mxCell>
        <mxCell id="B4tNh-O1DBcCCkFyCfUT-14" value="true" style="edgeLabel;html=1;align=center;verticalAlign=middle;resizable=0;points=[];" vertex="1" connectable="0" parent="B4tNh-O1DBcCCkFyCfUT-13">
          <mxGeometry x="0.272" y="4" relative="1" as="geometry">
            <mxPoint x="-4" y="-12" as="offset" />
          </mxGeometry>
        </mxCell>
        <mxCell id="B4tNh-O1DBcCCkFyCfUT-28" value="false" style="edgeStyle=orthogonalEdgeStyle;rounded=0;orthogonalLoop=1;jettySize=auto;html=1;" edge="1" parent="1" source="B4tNh-O1DBcCCkFyCfUT-4" target="B4tNh-O1DBcCCkFyCfUT-27">
          <mxGeometry relative="1" as="geometry" />
        </mxCell>
        <mxCell id="B4tNh-O1DBcCCkFyCfUT-4" value="i &amp;lt; lenght" style="rhombus;whiteSpace=wrap;html=1;" vertex="1" parent="1">
          <mxGeometry x="295" y="370" width="130" height="70" as="geometry" />
        </mxCell>
        <mxCell id="B4tNh-O1DBcCCkFyCfUT-10" style="edgeStyle=orthogonalEdgeStyle;rounded=0;orthogonalLoop=1;jettySize=auto;html=1;exitX=0.5;exitY=1;exitDx=0;exitDy=0;entryX=0.5;entryY=0;entryDx=0;entryDy=0;" edge="1" parent="1" source="B4tNh-O1DBcCCkFyCfUT-5" target="B4tNh-O1DBcCCkFyCfUT-7">
          <mxGeometry relative="1" as="geometry" />
        </mxCell>
        <mxCell id="B4tNh-O1DBcCCkFyCfUT-48" value="" style="edgeStyle=orthogonalEdgeStyle;rounded=0;orthogonalLoop=1;jettySize=auto;html=1;" edge="1" parent="1" source="B4tNh-O1DBcCCkFyCfUT-5" target="B4tNh-O1DBcCCkFyCfUT-2">
          <mxGeometry relative="1" as="geometry" />
        </mxCell>
        <mxCell id="B4tNh-O1DBcCCkFyCfUT-5" value="int length&lt;br&gt;string [] array" style="shape=parallelogram;perimeter=parallelogramPerimeter;whiteSpace=wrap;html=1;fixedSize=1;" vertex="1" parent="1">
          <mxGeometry x="300" y="110" width="120" height="60" as="geometry" />
        </mxCell>
        <mxCell id="B4tNh-O1DBcCCkFyCfUT-25" style="edgeStyle=orthogonalEdgeStyle;rounded=0;orthogonalLoop=1;jettySize=auto;html=1;entryX=0.5;entryY=0;entryDx=0;entryDy=0;" edge="1" parent="1" source="B4tNh-O1DBcCCkFyCfUT-7" target="B4tNh-O1DBcCCkFyCfUT-24">
          <mxGeometry relative="1" as="geometry" />
        </mxCell>
        <mxCell id="B4tNh-O1DBcCCkFyCfUT-7" value="int lenhtResultArray = 0&lt;br&gt;int i = 0" style="rounded=0;whiteSpace=wrap;html=1;" vertex="1" parent="1">
          <mxGeometry x="280" y="190" width="160" height="60" as="geometry" />
        </mxCell>
        <mxCell id="B4tNh-O1DBcCCkFyCfUT-16" style="edgeStyle=orthogonalEdgeStyle;rounded=0;orthogonalLoop=1;jettySize=auto;html=1;exitX=0.5;exitY=1;exitDx=0;exitDy=0;entryX=0.5;entryY=0;entryDx=0;entryDy=0;" edge="1" parent="1" source="B4tNh-O1DBcCCkFyCfUT-12" target="B4tNh-O1DBcCCkFyCfUT-15">
          <mxGeometry relative="1" as="geometry" />
        </mxCell>
        <mxCell id="B4tNh-O1DBcCCkFyCfUT-19" value="true" style="edgeLabel;html=1;align=center;verticalAlign=middle;resizable=0;points=[];" vertex="1" connectable="0" parent="B4tNh-O1DBcCCkFyCfUT-16">
          <mxGeometry x="-0.208" y="2" relative="1" as="geometry">
            <mxPoint as="offset" />
          </mxGeometry>
        </mxCell>
        <mxCell id="B4tNh-O1DBcCCkFyCfUT-18" style="edgeStyle=orthogonalEdgeStyle;rounded=0;orthogonalLoop=1;jettySize=auto;html=1;entryX=1;entryY=0.5;entryDx=0;entryDy=0;" edge="1" parent="1" source="B4tNh-O1DBcCCkFyCfUT-12" target="B4tNh-O1DBcCCkFyCfUT-17">
          <mxGeometry relative="1" as="geometry" />
        </mxCell>
        <mxCell id="B4tNh-O1DBcCCkFyCfUT-20" value="false" style="edgeLabel;html=1;align=center;verticalAlign=middle;resizable=0;points=[];" vertex="1" connectable="0" parent="B4tNh-O1DBcCCkFyCfUT-18">
          <mxGeometry x="0.088" y="2" relative="1" as="geometry">
            <mxPoint as="offset" />
          </mxGeometry>
        </mxCell>
        <mxCell id="B4tNh-O1DBcCCkFyCfUT-12" value="array[i].Length &amp;lt;=3" style="rhombus;whiteSpace=wrap;html=1;" vertex="1" parent="1">
          <mxGeometry x="295" y="480" width="130" height="80" as="geometry" />
        </mxCell>
        <mxCell id="B4tNh-O1DBcCCkFyCfUT-21" style="edgeStyle=orthogonalEdgeStyle;rounded=0;orthogonalLoop=1;jettySize=auto;html=1;entryX=0.5;entryY=1;entryDx=0;entryDy=0;" edge="1" parent="1" source="B4tNh-O1DBcCCkFyCfUT-15" target="B4tNh-O1DBcCCkFyCfUT-17">
          <mxGeometry relative="1" as="geometry" />
        </mxCell>
        <mxCell id="B4tNh-O1DBcCCkFyCfUT-15" value="lenhtResultArray = lenhtResultArray + 1" style="rounded=0;whiteSpace=wrap;html=1;" vertex="1" parent="1">
          <mxGeometry x="300" y="610" width="120" height="60" as="geometry" />
        </mxCell>
        <mxCell id="B4tNh-O1DBcCCkFyCfUT-23" style="edgeStyle=orthogonalEdgeStyle;rounded=0;orthogonalLoop=1;jettySize=auto;html=1;exitX=0.5;exitY=0;exitDx=0;exitDy=0;entryX=0;entryY=0.5;entryDx=0;entryDy=0;" edge="1" parent="1" source="B4tNh-O1DBcCCkFyCfUT-17" target="B4tNh-O1DBcCCkFyCfUT-4">
          <mxGeometry relative="1" as="geometry" />
        </mxCell>
        <mxCell id="B4tNh-O1DBcCCkFyCfUT-17" value="i = i + 1" style="rounded=0;whiteSpace=wrap;html=1;" vertex="1" parent="1">
          <mxGeometry x="100" y="490" width="120" height="60" as="geometry" />
        </mxCell>
        <mxCell id="B4tNh-O1DBcCCkFyCfUT-26" value="" style="edgeStyle=orthogonalEdgeStyle;rounded=0;orthogonalLoop=1;jettySize=auto;html=1;" edge="1" parent="1" source="B4tNh-O1DBcCCkFyCfUT-24" target="B4tNh-O1DBcCCkFyCfUT-4">
          <mxGeometry relative="1" as="geometry" />
        </mxCell>
        <mxCell id="B4tNh-O1DBcCCkFyCfUT-24" value="array" style="shape=document;whiteSpace=wrap;html=1;boundedLbl=1;" vertex="1" parent="1">
          <mxGeometry x="300" y="280" width="120" height="60" as="geometry" />
        </mxCell>
        <mxCell id="B4tNh-O1DBcCCkFyCfUT-31" style="edgeStyle=orthogonalEdgeStyle;rounded=0;orthogonalLoop=1;jettySize=auto;html=1;entryX=0.5;entryY=0;entryDx=0;entryDy=0;" edge="1" parent="1" source="B4tNh-O1DBcCCkFyCfUT-27" target="B4tNh-O1DBcCCkFyCfUT-29">
          <mxGeometry relative="1" as="geometry" />
        </mxCell>
        <mxCell id="B4tNh-O1DBcCCkFyCfUT-27" value="string resultArray = new string[lengthResultArray]&lt;br&gt;int j = 0" style="rounded=0;whiteSpace=wrap;html=1;" vertex="1" parent="1">
          <mxGeometry x="500" y="375" width="280" height="60" as="geometry" />
        </mxCell>
        <mxCell id="B4tNh-O1DBcCCkFyCfUT-32" style="edgeStyle=orthogonalEdgeStyle;rounded=0;orthogonalLoop=1;jettySize=auto;html=1;exitX=0.5;exitY=1;exitDx=0;exitDy=0;entryX=0.5;entryY=0;entryDx=0;entryDy=0;" edge="1" parent="1" source="B4tNh-O1DBcCCkFyCfUT-29" target="B4tNh-O1DBcCCkFyCfUT-30">
          <mxGeometry relative="1" as="geometry" />
        </mxCell>
        <mxCell id="B4tNh-O1DBcCCkFyCfUT-36" value="true" style="edgeLabel;html=1;align=center;verticalAlign=middle;resizable=0;points=[];" vertex="1" connectable="0" parent="B4tNh-O1DBcCCkFyCfUT-32">
          <mxGeometry x="-0.2975" y="-4" relative="1" as="geometry">
            <mxPoint y="1" as="offset" />
          </mxGeometry>
        </mxCell>
        <mxCell id="B4tNh-O1DBcCCkFyCfUT-43" value="" style="edgeStyle=orthogonalEdgeStyle;rounded=0;orthogonalLoop=1;jettySize=auto;html=1;" edge="1" parent="1" source="B4tNh-O1DBcCCkFyCfUT-29" target="B4tNh-O1DBcCCkFyCfUT-42">
          <mxGeometry relative="1" as="geometry" />
        </mxCell>
        <mxCell id="B4tNh-O1DBcCCkFyCfUT-44" value="false" style="edgeLabel;html=1;align=center;verticalAlign=middle;resizable=0;points=[];" vertex="1" connectable="0" parent="B4tNh-O1DBcCCkFyCfUT-43">
          <mxGeometry x="0.0776" y="2" relative="1" as="geometry">
            <mxPoint x="1" as="offset" />
          </mxGeometry>
        </mxCell>
        <mxCell id="B4tNh-O1DBcCCkFyCfUT-29" value="i &amp;lt; lenght" style="rhombus;whiteSpace=wrap;html=1;" vertex="1" parent="1">
          <mxGeometry x="470" y="485" width="130" height="70" as="geometry" />
        </mxCell>
        <mxCell id="B4tNh-O1DBcCCkFyCfUT-34" value="" style="edgeStyle=orthogonalEdgeStyle;rounded=0;orthogonalLoop=1;jettySize=auto;html=1;" edge="1" parent="1" source="B4tNh-O1DBcCCkFyCfUT-30" target="B4tNh-O1DBcCCkFyCfUT-33">
          <mxGeometry relative="1" as="geometry" />
        </mxCell>
        <mxCell id="B4tNh-O1DBcCCkFyCfUT-37" value="true" style="edgeLabel;html=1;align=center;verticalAlign=middle;resizable=0;points=[];" vertex="1" connectable="0" parent="B4tNh-O1DBcCCkFyCfUT-34">
          <mxGeometry x="-0.3118" y="-3" relative="1" as="geometry">
            <mxPoint as="offset" />
          </mxGeometry>
        </mxCell>
        <mxCell id="B4tNh-O1DBcCCkFyCfUT-40" style="edgeStyle=orthogonalEdgeStyle;rounded=0;orthogonalLoop=1;jettySize=auto;html=1;entryX=0;entryY=0.5;entryDx=0;entryDy=0;" edge="1" parent="1" source="B4tNh-O1DBcCCkFyCfUT-30" target="B4tNh-O1DBcCCkFyCfUT-35">
          <mxGeometry relative="1" as="geometry" />
        </mxCell>
        <mxCell id="B4tNh-O1DBcCCkFyCfUT-41" value="false" style="edgeLabel;html=1;align=center;verticalAlign=middle;resizable=0;points=[];" vertex="1" connectable="0" parent="B4tNh-O1DBcCCkFyCfUT-40">
          <mxGeometry x="-0.2151" y="4" relative="1" as="geometry">
            <mxPoint as="offset" />
          </mxGeometry>
        </mxCell>
        <mxCell id="B4tNh-O1DBcCCkFyCfUT-30" value="array[i].Length &amp;lt;=3" style="rhombus;whiteSpace=wrap;html=1;" vertex="1" parent="1">
          <mxGeometry x="470" y="590" width="130" height="80" as="geometry" />
        </mxCell>
        <mxCell id="B4tNh-O1DBcCCkFyCfUT-39" style="edgeStyle=orthogonalEdgeStyle;rounded=0;orthogonalLoop=1;jettySize=auto;html=1;entryX=0.5;entryY=1;entryDx=0;entryDy=0;" edge="1" parent="1" source="B4tNh-O1DBcCCkFyCfUT-33" target="B4tNh-O1DBcCCkFyCfUT-35">
          <mxGeometry relative="1" as="geometry" />
        </mxCell>
        <mxCell id="B4tNh-O1DBcCCkFyCfUT-33" value="resultArray[j]=array[i]&lt;br&gt;j = j + 1" style="rounded=0;whiteSpace=wrap;html=1;" vertex="1" parent="1">
          <mxGeometry x="475" y="710" width="120" height="60" as="geometry" />
        </mxCell>
        <mxCell id="B4tNh-O1DBcCCkFyCfUT-35" value="i = i + 1" style="rounded=0;whiteSpace=wrap;html=1;" vertex="1" parent="1">
          <mxGeometry x="670" y="600" width="120" height="60" as="geometry" />
        </mxCell>
        <mxCell id="B4tNh-O1DBcCCkFyCfUT-47" value="" style="edgeStyle=orthogonalEdgeStyle;rounded=0;orthogonalLoop=1;jettySize=auto;html=1;" edge="1" parent="1" source="B4tNh-O1DBcCCkFyCfUT-42" target="B4tNh-O1DBcCCkFyCfUT-46">
          <mxGeometry relative="1" as="geometry" />
        </mxCell>
        <mxCell id="B4tNh-O1DBcCCkFyCfUT-42" value="resultArray" style="shape=document;whiteSpace=wrap;html=1;boundedLbl=1;" vertex="1" parent="1">
          <mxGeometry x="670" y="490" width="120" height="60" as="geometry" />
        </mxCell>
        <mxCell id="B4tNh-O1DBcCCkFyCfUT-46" value="finish" style="rounded=1;whiteSpace=wrap;html=1;fillColor=#dae8fc;strokeColor=#6c8ebf;" vertex="1" parent="1">
          <mxGeometry x="850" y="500" width="120" height="40" as="geometry" />
        </mxCell>
      </root>
    </mxGraphModel>
  </diagram>
</mxfile>
